<svg width="40" height="40" fill="none" xmlns="http://www.w3.org/2000/svg"><g clip-path="url(#clip0_1_2180)" fill="#E23030"><path d="M19.976 40a19.846 19.846 0 01-14.127-5.85C2.074 30.376 0 25.358-.01 20.006A19.825 19.825 0 015.83 5.859C9.606 2.084 14.624 0 19.976-.01h.029A19.829 19.829 0 0134.13 5.84a19.946 19.946 0 015.86 14.146 19.825 19.825 0 01-5.84 14.146C30.374 37.907 25.356 39.99 19.994 40h-.02zm.01-37.63A17.474 17.474 0 007.53 7.541c-3.326 3.336-5.16 7.761-5.16 12.464.009 9.72 7.894 17.625 17.595 17.625h.058c9.672-.029 17.577-7.933 17.615-17.616.02-4.693-1.806-9.108-5.123-12.444a17.549 17.549 0 00-12.502-5.21h-.029v.01z"/><path d="M19.975 22.232c-.248 0-.497-.096-.726-.277-.287-.23-.43-.507-.43-.86v-1.616c0-2.255-.01-4.578.01-6.872 0-.621.515-1.118 1.165-1.118.66 0 1.166.497 1.176 1.156.02.985.01 1.979.01 2.954v2.494c0 .985 0 1.998-.01 2.992 0 .487-.239.841-.698 1.042a1.365 1.365 0 01-.497.105zm.01 6.786c-.459 0-.889-.181-1.204-.506a1.644 1.644 0 01-.488-1.205c.01-.946.765-1.682 1.72-1.682h.01a1.702 1.702 0 011.702 1.711 1.717 1.717 0 01-1.711 1.692l-.029-.01z"/></g><defs><clipPath id="clip0_1_2180"><path fill="#fff" d="M0 0h40v40H0z"/></clipPath></defs></svg>