<svg width="18" height="15" fill="none" xmlns="http://www.w3.org/2000/svg"><g clip-path="url(#clip0_111_72954)" fill="#1F2023"><path d="M10.937 11.251H7.685c-1.15 0-1.926-.583-2.253-1.687L3.23 2.115c-.13-.453-.334-.604-.812-.604H.802C.334 1.507 0 1.191 0 .759 0 .334.327.011.784.007c.675 0 1.35-.032 2.018.032.886.088 1.498.594 1.8 1.437.158.446.281.903.404 1.36.039.144.102.175.243.175 3.726-.003 7.45 0 11.176-.007.45 0 .847.116 1.16.447.408.428.506.93.327 1.493-.45 1.416-.893 2.832-1.34 4.248-.073.228-.13.464-.224.682-.362.85-1.01 1.335-1.934 1.363-1.16.031-2.32.007-3.48.007.003.003.003.007.003.007zm-2.682.755c.83 0 1.49.664 1.49 1.497 0 .83-.668 1.497-1.49 1.5-.83 0-1.509-.678-1.505-1.507a1.499 1.499 0 011.505-1.49zM13.504 15a1.508 1.508 0 01-1.505-1.49 1.502 1.502 0 013.006-.007A1.508 1.508 0 0113.503 15z"/></g><defs><clipPath id="clip0_111_72954"><path fill="#fff" d="M0 0h18v15H0z"/></clipPath></defs></svg>