<svg width="27" height="40" fill="none" xmlns="http://www.w3.org/2000/svg"><g clip-path="url(#clip0_1_2208)" fill="#1F2023"><path d="M8.445 29.393c-1.127-1.456-2.218-2.84-3.291-4.241-1.375-1.795-2.697-3.616-3.709-5.652C-1.713 13.125.452 5.545 6.502 1.848c5.554-3.384 13.06-2 17.025 3.152 3.504 4.545 3.85 10.366.931 15.491-1.446 2.545-3.291 4.795-5.065 7.098-.453.59-.905 1.17-1.402 1.813.31.053.55.098.79.143 1.96.357 3.868.866 5.571 1.964.479.312.931.696 1.304 1.125 1.047 1.178 1.012 2.652-.026 3.84-.826.937-1.89 1.508-3.026 1.972-1.81.733-3.7 1.125-5.633 1.34-3.371.375-6.734.285-10.06-.42-1.89-.402-3.736-.955-5.297-2.16a5.193 5.193 0 01-1.047-1.072c-.79-1.125-.718-2.348.142-3.42.63-.776 1.446-1.312 2.324-1.74 1.615-.787 3.327-1.215 5.084-1.5.089-.028.168-.046.328-.081zm4.773 3.768c.08-.099.133-.161.178-.215 2.013-2.642 4.018-5.294 6.032-7.937 1.606-2.116 3.283-4.197 4.338-6.66 1.677-3.912 1.518-7.75-.762-11.385-3.141-5-9.44-6.812-14.763-4.268-5.225 2.491-7.86 8.366-6.148 14.17.63 2.143 1.819 4 3.14 5.759 1.775 2.366 3.594 4.688 5.386 7.036.87 1.142 1.712 2.303 2.6 3.5zm0 5.267c2.883-.017 5.722-.339 8.455-1.312.993-.357 1.952-.786 2.697-1.571.656-.688.647-1.411-.053-2.063a5.534 5.534 0 00-1.1-.821c-1.89-1.063-3.966-1.518-6.086-1.777-.151-.018-.373.134-.48.277a264.97 264.97 0 00-2.634 3.589c-.55.759-1.056.75-1.606 0a210.235 210.235 0 00-2.662-3.625c-.097-.134-.337-.25-.497-.232-1.871.214-3.708.616-5.411 1.446a8.085 8.085 0 00-1.783 1.215c-.648.571-.63 1.285-.054 1.928.187.206.39.429.63.554.78.41 1.553.866 2.387 1.16 2.643.938 5.403 1.224 8.197 1.233z"/><path d="M7.797 13.268a5.441 5.441 0 015.456-5.464c2.99.018 5.394 2.455 5.394 5.473a5.441 5.441 0 01-5.456 5.464c-2.99-.009-5.403-2.455-5.394-5.473zm5.403 3.91c2.12.01 3.886-1.731 3.903-3.856.027-2.143-1.739-3.938-3.868-3.947-2.12-.009-3.877 1.732-3.903 3.866-.027 2.143 1.72 3.92 3.868 3.938zm10.15-4.258c-.036.285-.027.482-.09.66-.124.384-.417.563-.816.527-.381-.036-.656-.33-.692-.75-.035-.366-.017-.75-.07-1.116-.489-3.384-2.316-5.714-5.457-7-.337-.143-.656-.33-.63-.714.018-.26.178-.58.382-.732.168-.125.523-.125.736-.036 3.371 1.321 5.492 3.759 6.343 7.303.151.634.204 1.295.293 1.858zm-9.28-9.027a.786.786 0 01-.79.786.79.79 0 01-.762-.768.792.792 0 01.79-.786c.399.01.753.357.762.768z"/></g><defs><clipPath id="clip0_1_2208"><path fill="#fff" d="M0 0h26.429v40H0z"/></clipPath></defs></svg>