<svg width="16" height="16" fill="none" xmlns="http://www.w3.org/2000/svg"><g clip-path="url(#clip0_1_3684)" fill="#E0E0E0"><path d="M3.067 1.443c0-.278-.006-.534.004-.787.02-.477.387-.743.858-.627a.575.575 0 01.462.531c.013.224.007.448.01.672v.199h1.457l.01-.167c.006-.246-.007-.493.02-.736.032-.326.308-.535.663-.528.351.006.621.224.64.554.017.284.004.573.004.873h1.542c0-.256-.007-.512 0-.765.01-.483.384-.755.858-.633a.575.575 0 01.456.521c.016.228.01.458.013.689v.195h1.532c0-.208-.003-.413 0-.621.003-.119-.003-.237.023-.349.068-.294.341-.477.673-.46.332.015.579.217.615.527.02.173.013.352.016.528.003.122 0 .244 0 .41.293 0 .576-.026.852.003.735.077 1.295.43 1.727 1.037.378.528.495 1.092.491 1.716-.01 3.076-.003 6.155-.003 9.23 0 1.194-.76 2.177-1.906 2.462-.218.054-.449.08-.673.08-3.61.006-7.218.006-10.828.003-1.47 0-2.58-1.095-2.583-2.545 0-3.159 0-6.314.003-9.473 0-1.447 1.116-2.535 2.586-2.542.15.003.303.003.478.003zM1.334 5.911v7.493c0 .797.497 1.28 1.31 1.28h10.702c.823 0 1.314-.483 1.314-1.293V5.91H1.334z"/><path d="M2.866 12.377c0-.279-.004-.554 0-.832.003-.298.175-.468.475-.468.53-.003 1.06-.003 1.59 0 .293 0 .465.17.465.455v1.581c0 .288-.172.454-.465.454-.54 0-1.083.004-1.623 0-.325 0-.449-.13-.446-.441.007-.25.004-.5.004-.75zm-.001-3.87c0-.278-.003-.554 0-.832.003-.288.173-.46.465-.46a135.02 135.02 0 011.61 0c.293.002.456.175.456.466V9.25c0 .29-.166.454-.462.454-.537.003-1.073.003-1.61-.003-.104 0-.228-.016-.306-.074a.415.415 0 01-.153-.272c-.02-.281-.006-.563-.006-.848h.006zm5.12 5.063c-.27 0-.543.004-.813 0-.26-.003-.439-.175-.439-.431-.003-.538-.003-1.08 0-1.617 0-.265.18-.438.452-.441a137.76 137.76 0 011.627 0c.28.003.455.176.455.45.003.529.003 1.057 0 1.585 0 .285-.176.455-.468.455h-.814zm2.612-5.11c0-.267-.003-.535 0-.801.003-.269.17-.442.442-.445a70.266 70.266 0 011.643 0c.273.003.442.176.446.448.003.535.003 1.066 0 1.6-.004.272-.176.442-.45.442-.546.003-1.095.003-1.642 0-.273 0-.439-.173-.442-.445.003-.269.003-.534.003-.8zm0 3.866c0-.266-.003-.535 0-.8.004-.27.173-.442.446-.445a140.53 140.53 0 011.643 0c.263.003.442.176.442.432a68.32 68.32 0 010 1.632c-.003.26-.185.426-.449.426-.546.003-1.096.003-1.643 0-.263 0-.435-.173-.439-.43-.003-.274 0-.547 0-.815zM7.998 9.704c-.27 0-.543.003-.813 0-.28-.003-.452-.173-.455-.451-.004-.528-.004-1.056 0-1.584 0-.279.169-.452.452-.455a68.883 68.883 0 011.626 0c.283.003.452.18.456.455.003.528.003 1.056 0 1.584 0 .278-.173.445-.453.451H8z"/></g><defs><clipPath id="clip0_1_3684"><path fill="#fff" d="M0 0h16v16H0z"/></clipPath></defs></svg>