<svg width="40" height="40" fill="none" xmlns="http://www.w3.org/2000/svg"><rect x="1" y="-1" width="38" height="38" rx="19" transform="matrix(1 0 0 -1 0 38)" stroke="#E23030" stroke-width="2"/><g clip-path="url(#clip0_1_2720)"><path d="M15.16 20c0-.25.082-.502.246-.693l5.16-6.02a.758.758 0 011.188 0 1.1 1.1 0 010 1.387L17.188 20l4.566 5.326a1.1 1.1 0 010 1.387.758.758 0 01-1.189 0l-5.16-6.02A1.066 1.066 0 0115.16 20z" fill="#E23030"/></g><defs><clipPath id="clip0_1_2720"><path fill="#fff" transform="rotate(90 6.5 19.5)" d="M0 0h14v12H0z"/></clipPath></defs></svg>