<svg width="20" height="20" fill="none" xmlns="http://www.w3.org/2000/svg"><g clip-path="url(#clip0_1_2894)" fill="#E23030"><path d="M14.586 0H5.414A5.42 5.42 0 000 5.414v9.172A5.42 5.42 0 005.414 20h9.172A5.42 5.42 0 0020 14.586V5.414A5.42 5.42 0 0014.586 0zM10 15.469A5.475 5.475 0 014.531 10 5.475 5.475 0 0110 4.531 5.475 5.475 0 0115.469 10 5.475 5.475 0 0110 15.469zm5.6-9.648a1.618 1.618 0 01-1.617-1.616c0-.891.725-1.616 1.616-1.616.891 0 1.616.725 1.616 1.616 0 .891-.725 1.616-1.616 1.616z"/><path d="M10 5.704A4.301 4.301 0 005.704 10 4.301 4.301 0 0010 14.296 4.301 4.301 0 0014.296 10 4.3 4.3 0 0010 5.704zm5.6-1.942a.444.444 0 100 .888.444.444 0 000-.888z"/></g><defs><clipPath id="clip0_1_2894"><path fill="#fff" d="M0 0h20v20H0z"/></clipPath></defs></svg>