<svg width="20" height="20" fill="none" xmlns="http://www.w3.org/2000/svg"><g clip-path="url(#clip0_1_2881)"><path d="M19.374 11.885a9.493 9.493 0 00.171-1.788c0-5.209-4.238-9.446-9.449-9.446-.449 0-.903.032-1.352.096A5.768 5.768 0 005.905 0 5.782 5.782 0 00.13 5.776c0 .932.228 1.857.662 2.683a9.507 9.507 0 00-.143 1.638c0 5.209 4.238 9.447 9.448 9.447.501 0 1.002-.04 1.49-.117a5.797 5.797 0 002.507.573 5.782 5.782 0 005.775-5.775c0-.816-.166-1.603-.495-2.34zM9.805 8.71l.394.128c.176.058.36.116.539.17.738.23 1.502.466 2.126.91.823.585 1.24 1.413 1.24 2.462 0 .963-.425 1.804-1.199 2.37-.69.504-1.643.77-2.753.77-3.316 0-4.113-1.948-4.278-2.546a1.021 1.021 0 011.968-.544c.184.666 1.026 1.048 2.31 1.048.574 0 1.91-.107 1.91-1.098 0-.726-.387-.943-1.929-1.42-.187-.059-.381-.119-.576-.183l-.381-.125c-.776-.252-1.51-.49-2.086-.896-.762-.538-1.148-1.302-1.148-2.269 0-1.495 1.435-3.01 4.178-3.01 2.35 0 3.423 1.028 3.91 1.89a1.021 1.021 0 01-1.778 1.005c-.12-.21-.482-.853-2.133-.853-1.393 0-2.135.563-2.135.968 0 .52.157.683 1.821 1.223z" fill="#E23030"/></g><defs><clipPath id="clip0_1_2881"><path fill="#fff" d="M0 0h20v20H0z"/></clipPath></defs></svg>