<svg width="20" height="21" fill="none" xmlns="http://www.w3.org/2000/svg"><g clip-path="url(#clip0_1_2883)" fill="#E23030"><path d="M10.68 11.308a.586.586 0 01-.828 0L7.189 8.643a.587.587 0 010-.829l.473-.474-1.39-1.39-1.139 1.139a.986.986 0 000 1.391l4.882 4.886a.975.975 0 00.695.286c.264 0 .51-.102.695-.286l1.139-1.14-1.39-1.392-.474.474z"/><path d="M19.16 7.064c0-1.88-.736-3.652-2.073-4.99A7.006 7.006 0 0012.1 0H7.918a7.006 7.006 0 00-4.986 2.074A7.017 7.017 0 00.86 7.064v3.29c0 1.456.444 2.856 1.284 4.05a7.085 7.085 0 002.898 2.397v1.89c0 .977.546 1.324 1.015 1.324.334 0 .669-.165.994-.491l2.104-2.106h2.947a7.006 7.006 0 004.986-2.074 7.017 7.017 0 002.073-4.99v-3.29zm-5.373 5.576l-1.554 1.555a2.14 2.14 0 01-1.524.63 2.14 2.14 0 01-1.523-.63L4.304 9.309a2.16 2.16 0 010-3.05l1.554-1.554a.585.585 0 01.828 0l2.219 2.22a.587.587 0 010 .83l-.473.474 1.834 1.835.473-.474a.586.586 0 01.829 0l2.219 2.221a.586.586 0 010 .83zM9.566 5.693c0-.324.262-.587.586-.587a3.687 3.687 0 013.682 3.685.586.586 0 11-1.172 0 2.514 2.514 0 00-2.51-2.512.586.586 0 01-.586-.586zm6.192 3.684a.586.586 0 01-.586-.586 4.993 4.993 0 00-1.47-3.553 4.986 4.986 0 00-3.55-1.471.586.586 0 010-1.173 6.15 6.15 0 014.378 1.815 6.157 6.157 0 011.814 4.382.586.586 0 01-.586.586z"/></g><defs><clipPath id="clip0_1_2883"><path fill="#fff" d="M0 0h20v20.015H0z"/></clipPath></defs></svg>