<svg width="20" height="20" fill="none" xmlns="http://www.w3.org/2000/svg"><g clip-path="url(#clip0_1_1885)" fill="#1FA956"><path d="M11.788 15.974c.07-.44.14-.882.203-1.327a.3.3 0 00-.066-.23c-2.109-2.117-4.221-4.23-6.33-6.346-.078-.082-.148-.094-.257-.07-.625.148-1.254.219-1.894.125-1.109-.16-1.976-.726-2.64-1.609a3.833 3.833 0 01-.788-2.362c0-.371.062-.754.152-1.117.11-.453.644-.562.996-.223.417.41.827.828 1.241 1.242.125.125.246.25.383.363.472.39 1.16.36 1.577-.066.43-.437.465-1.129.04-1.59-.5-.538-1.031-1.046-1.55-1.569-.149-.148-.258-.316-.231-.535A.561.561 0 013.05.156c.91-.246 1.807-.203 2.67.18 1.176.52 1.949 1.406 2.316 2.636.23.765.207 1.542-.008 2.307-.043.153-.02.246.094.356a2341.47 2341.47 0 016.208 6.216c.14.14.258.168.442.125.769-.184 1.55-.234 2.311.008 1.535.492 2.472 1.542 2.827 3.112.137.593.094 1.187-.043 1.78-.054.242-.187.414-.43.484-.234.067-.433-.015-.6-.183-.497-.496-.992-.996-1.492-1.492-.48-.476-1.152-.511-1.64-.097-.465.39-.555 1.117-.16 1.577.312.367.667.695 1.003 1.039.211.215.422.425.633.636.168.168.242.371.175.606-.07.242-.246.37-.488.425-1.702.367-3.112-.129-4.209-1.464-.574-.699-.843-1.523-.87-2.433z"/><path d="M6.22 10.414l3.335 3.335a3.074 3.074 0 00-.094.101c-1.804 1.804-3.604 3.608-5.412 5.412-.82.82-1.98.972-2.929.394-1.25-.761-1.507-2.487-.511-3.565.472-.511.976-.992 1.468-1.484 1.343-1.343 2.686-2.686 4.03-4.033.054-.05.086-.121.113-.16zm-3.147 7.29c.14-.082.304-.145.414-.254a723.706 723.706 0 003.463-3.46.889.889 0 00.113-.132.577.577 0 00-.343-.894c-.258-.063-.45.05-.625.226a2731.023 2731.023 0 00-3.401 3.405 1.082 1.082 0 00-.129.145.558.558 0 00-.043.609c.106.207.285.308.55.355zM16.764 4.732l-3.905 3.952A662.511 662.511 0 0111.23 7.06l3.913-3.96c-.094-.082-.184-.144-.258-.222-.277-.3-.242-.71.106-.922A249.217 249.217 0 0118.083.098c.27-.16.52-.121.75.101.328.316.652.637.964.965.23.238.258.48.09.765a299.828 299.828 0 01-1.835 3.057c-.219.36-.625.402-.933.117-.113-.101-.211-.218-.355-.37z"/></g><defs><clipPath id="clip0_1_1885"><path fill="#fff" d="M0 0h19.996v20H0z"/></clipPath></defs></svg>