<svg width="11" height="20" fill="none" xmlns="http://www.w3.org/2000/svg"><path d="M2.499 2.5V.734c0-.492.238-.734.726-.734h3.554c.476 0 .719.242.719.723V2.5h1.199c.437 0 .8.156 1.062.515.18.246.242.527.242.828-.004.996 0 1.992 0 2.988v11.814c0 .55-.203.98-.707 1.222a1.417 1.417 0 01-.582.125c-2.472.008-4.948.008-7.42.004-.766 0-1.29-.527-1.29-1.296C0 13.736 0 8.768.003 3.803c0-.77.536-1.293 1.305-1.3.39-.008.778-.004 1.192-.004zm2.495 13.64l.043.012c.816-2.046 1.636-4.093 2.464-6.163H4.998V6.343c-.012-.004-.023-.004-.035-.008-.816 2.05-1.637 4.097-2.464 6.167h2.495v3.64z" fill="#1FA956"/></svg>