<svg width="20" height="17" fill="none" xmlns="http://www.w3.org/2000/svg"><g clip-path="url(#clip0_1_1890)" fill="#1FA956"><path d="M2.327 10.701a4.318 4.318 0 014.097-2.884 4.358 4.358 0 014.079 2.974c.665 2.022-.027 3.639-2.282 5.328-.423.08-.836.153-1.267.189a14.47 14.47 0 01-1.393.027c-.233-.01-.467-.018-.692-.063-.108-.018-.188-.063-.27-.108h.028c-2.372-1.869-3.02-3.432-2.3-5.463zm4.043 3.02a1.542 1.542 0 001.572-1.555 1.526 1.526 0 00-1.554-1.573c-.88 0-1.564.683-1.555 1.573A1.569 1.569 0 006.37 13.72z"/><path d="M10.99 14.87c1.095.072 2.138.144 3.17.207.702.044 1.402.116 2.103.143.476.018.962.01 1.429-.08 1.132-.207 1.734-1.034 1.815-2.39.072-1.213-.423-2.21-1.231-3.073-.98-1.025-2.192-1.698-3.45-2.3C10.872 5.48 6.713 4.996 2.4 5.48 1.088 5.625.118 6.649.055 8.014a45.567 45.567 0 00-.027 3.675c.036.989.548 1.734 1.437 2.31-.682-2.903.1-5.149 2.74-6.524 1.923-.997 4.269-.566 5.868.935 1.285 1.222 2.363 3.62.916 6.46z"/><path d="M19.974 10.315a4.53 4.53 0 00-.513-2.588c-.808-1.563-2.138-2.597-3.638-3.423a16.514 16.514 0 00-4.295-1.644c-.315-.072-.45-.207-.521-.54C10.755.936 9.83.118 8.689.01c-1.06-.1-2.112.565-2.561 1.67-.099.243-.216.297-.458.297-1.15-.01-2.3 0-3.46.009-.008 0-.017.018.019-.018.386.782.772 1.554 1.159 2.318l-.117.09c.27 0 .53.009.8 0 2.83-.108 5.624.144 8.328.997 1.743.557 3.397 1.285 4.915 2.291 1.051.701 1.986 1.537 2.66 2.65z"/></g><defs><clipPath id="clip0_1_1890"><path fill="#fff" transform="matrix(-1 0 0 1 20 0)" d="M0 0h20v16.334H0z"/></clipPath></defs></svg>