<svg width="13" height="20" fill="none" xmlns="http://www.w3.org/2000/svg"><g clip-path="url(#clip0_1_1898)"><path d="M5.129 11.956H4.87c-1.506 0-3.012.004-4.518-.003-.118 0-.286-.044-.333-.126-.047-.078 0-.25.059-.348C2.312 7.723 4.554 3.971 6.795.22c.036-.054.06-.129.11-.156.066-.04.164-.075.23-.055.067.02.126.106.157.176.028.063.008.14.008.211v7.688h4.445c.367 0 .453.153.27.477L5.64 19.77c-.027.05-.05.12-.094.144-.078.047-.18.098-.254.082-.066-.015-.125-.117-.156-.195-.028-.063-.008-.141-.008-.212v-7.633z" fill="#1FA956"/></g><defs><clipPath id="clip0_1_1898"><path fill="#fff" d="M0 0h12.109v20H0z"/></clipPath></defs></svg>