<svg width="20" height="19" fill="none" xmlns="http://www.w3.org/2000/svg"><g clip-path="url(#clip0_1_1856)" fill="#1FA956"><path d="M17.657 14.05H4.709v1.272c.527.215.91.586 1.077 1.144a1.75 1.75 0 01-1.093 2.16 1.762 1.762 0 01-2.214-.985 1.735 1.735 0 01.867-2.24c.129-.063.175-.126.175-.274-.007-1.133-.003-2.265-.003-3.417H.015V8.192h2.316V7.017H.027C-.25 4.79 1.4 3.452 3.007 3.495c.55.015 1.104.004 1.678.004v2.33h1.172V4.683H16.47v1.144h1.179V4.682h1.167v10.593c.223.149.434.262.606.414.577.508.734 1.343.41 2.035-.325.679-1.067 1.097-1.789 1.003a1.765 1.765 0 01-1.542-1.507c-.117-.715.28-1.476.96-1.8.157-.075.203-.153.196-.32-.012-.348 0-.692 0-1.05zm-.016-1.184V7.025h-1.156c0 .171.008.331 0 .492-.02.292-.027.585-.078.87-.3 1.699-1.792 3.136-3.506 3.26a23.632 23.632 0 01-3.448 0c-1.812-.136-3.354-1.721-3.546-3.533-.039-.36-.039-.722-.054-1.09H4.716v5.838c4.311.004 8.61.004 12.925.004zM15.305 0v1.152h-.656c.52.789 1.023 1.546 1.542 2.335H6.161c.515-.781 1.014-1.542 1.534-2.323H7.05V0h8.255z"/></g><defs><clipPath id="clip0_1_1856"><path fill="#fff" d="M0 0h20v18.735H0z"/></clipPath></defs></svg>