<svg width="20" height="20" fill="none" xmlns="http://www.w3.org/2000/svg"><g clip-path="url(#clip0_1_1868)" fill="#1FA956"><path d="M2.624 16.391c.66-1.544 1.308-3.052 1.969-4.597-.116 0-.209-.004-.297 0-.916.056-1.596-.7-1.644-1.516a18.621 18.621 0 010-2.216A1.624 1.624 0 014.3 6.542c2.981.02 5.962.027 8.938-.005 1.309-.012 2.113.872 2.373 1.773.02.064.04.124.064.204h.68c.412.004.7.28.696.664-.004.372-.288.644-.688.652-.224.004-.452 0-.684 0-.048.14-.088.272-.136.404-.332.904-1.188 1.584-2.257 1.568-1.96-.028-3.92-.008-5.88-.012-.14 0-.209.044-.26.172-.601 1.417-1.213 2.825-1.813 4.241-.064.148-.14.192-.296.192-.793-.012-1.585-.004-2.413-.004zm4.59-11.158v.98h-1.3v-.98h-.28c-.628-.004-1.033-.408-1.037-1.04-.004-.88 0-1.76 0-2.64v-.245h-.652V0h5.23v1.296h-.649v2.832c0 .717-.38 1.101-1.096 1.105h-.216zM1.336 8.518h.948v1.304h-.9c-.108.184-.168.352-.28.472-.184.196-.432.232-.68.132a.616.616 0 01-.416-.6 36.09 36.09 0 010-1.316.64.64 0 01.564-.644.641.641 0 01.724.484c.008.052.024.1.04.168z"/><path d="M9.154 12.118c.16 1.044-.964 1.804-2.404 1.62.052-.123.096-.247.148-.368.16-.372.316-.748.48-1.116.024-.056.092-.132.144-.132.544-.008 1.092-.004 1.632-.004zM3.533 16.72h.664c-.196.891-.388 1.776-.808 2.588a2 2 0 01-.392.52.683.683 0 01-.392.156c-.164.016-.272-.1-.308-.26-.032-.164.036-.316.192-.352.208-.048.284-.196.336-.356.228-.696.44-1.393.656-2.089.02-.064.032-.128.052-.208zm15.496-9.883c.1.084.22.144.276.24.08.128.036.273-.072.385l-.737.736c-.176.176-.348.352-.524.52-.16.156-.36.164-.496.024s-.124-.328.04-.496c.408-.412.816-.824 1.232-1.229.068-.064.165-.104.28-.18zm-1.333 2.629c.116.068.212.1.28.164.42.408.832.824 1.244 1.24.148.152.156.348.032.484-.136.144-.332.14-.496-.02-.42-.416-.84-.84-1.256-1.256-.112-.112-.148-.252-.068-.38.056-.092.168-.152.264-.232zm1.331-.624c.192 0 .388-.004.58 0 .24.004.396.136.392.332-.004.188-.152.324-.38.328-.4.004-.8.004-1.2 0-.224-.004-.372-.144-.372-.336.004-.192.148-.32.38-.328.2 0 .4.004.6.004z"/></g><defs><clipPath id="clip0_1_1868"><path fill="#fff" d="M0 0h20v19.984H0z"/></clipPath></defs></svg>