<svg width="20" height="20" fill="none" xmlns="http://www.w3.org/2000/svg"><path d="M.01 19.987c-.005-.085-.01-.157-.01-.228V2.326C0 1.098.808.223 2.113.022 2.244.004 2.386 0 2.522 0h7.06c1.499 0 2.54.955 2.54 2.33.006 2.447 0 4.898 0 7.344V10c.186 0 .361-.009.536 0 .434.022.881.005 1.305.094 1.027.219 1.767 1.071 1.777 2.044.02 1.661.005 3.317.01 4.978 0 .558.302.987.793 1.143.77.25 1.549-.21 1.626-.96.01-.076.005-.147.005-.223V9.214c-.95.335-1.855.304-2.716-.147a2.81 2.81 0 01-1.368-1.536c-.414-1.085-.025-2.732 1.786-3.464-.856-.763-1.699-1.531-2.536-2.29.453-.41.866-.79 1.363-1.241.049.071.097.178.18.259 1.363 1.254 2.736 2.495 4.095 3.754.657.607 1.027 1.335 1.022 2.214-.01 3.451 0 6.907-.005 10.357-.005 1.67-1.373 2.925-3.126 2.875-1.572-.04-2.891-1.205-2.92-2.651-.035-1.786-.01-3.572-.015-5.357v-.304h-1.806v8.3c-4.051.004-8.077.004-12.118.004zm9.674-12.22V2.25h-7.24v5.518h7.24zm7.288.005c.667-.004 1.207-.504 1.202-1.111-.005-.603-.564-1.107-1.217-1.103-.652.005-1.212.522-1.207 1.116.01.603.56 1.098 1.222 1.098z" fill="#1FA956"/></svg>