<svg width="20" height="20" fill="none" xmlns="http://www.w3.org/2000/svg"><g clip-path="url(#clip0_1_1880)" fill="#1FA956"><path d="M14.184 18.398c-.398-.054-.972-.125-1.543-.218a.75.75 0 00-.707.226c-.351.356-.718.7-1.078 1.047-.762.727-1.773.727-2.531 0-.367-.351-.735-.7-1.094-1.058-.2-.2-.418-.258-.691-.211-.492.082-.989.152-1.489.21-1.09.126-1.867-.468-2.054-1.55-.082-.48-.168-.961-.246-1.442a.712.712 0 00-.407-.558 50.82 50.82 0 01-1.363-.723c-.918-.504-1.226-1.45-.777-2.394.219-.457.437-.915.668-1.368a.74.74 0 00-.004-.726C.645 9.199.434 8.758.223 8.32c-.48-.988-.168-1.949.797-2.465.438-.234.867-.468 1.309-.69a.742.742 0 00.422-.59c.082-.5.16-1 .261-1.5.215-1.067 1.051-1.634 2.121-1.462.489.078.977.14 1.47.215a.665.665 0 00.6-.203c.372-.367.747-.727 1.122-1.086.754-.719 1.762-.719 2.52 0 .37.356.742.711 1.109 1.074.191.192.41.254.675.211.497-.078.989-.152 1.489-.215 1.101-.132 1.89.477 2.07 1.582.078.477.164.95.242 1.422.043.25.168.426.395.543.45.23.898.473 1.344.711.945.508 1.257 1.465.789 2.438-.211.437-.418.879-.645 1.312a.769.769 0 00.004.777c.223.426.426.864.637 1.297.472.98.164 1.938-.793 2.454-.434.234-.867.472-1.309.69-.258.13-.383.325-.43.606-.093.57-.183 1.145-.316 1.707-.191.79-.922 1.301-1.922 1.25zm-.191-12.183c-.02-.34-.277-.594-.602-.594-.215 0-.36.121-.5.266-2.469 2.472-4.941 4.941-7.41 7.414-.05.05-.101.101-.144.156a.539.539 0 00-.063.605c.11.215.293.325.54.32.206-.003.347-.128.48-.26 2.468-2.474 4.941-4.942 7.41-7.411.05-.05.11-.098.144-.156.055-.114.098-.23.145-.34zm-6.707 2.82a2.114 2.114 0 002.11-2.113 2.12 2.12 0 00-2.118-2.11A2.119 2.119 0 005.173 6.93a2.113 2.113 0 002.113 2.105zm4.617 1.93a2.108 2.108 0 00-2.117 2.101 2.122 2.122 0 002.105 2.121 2.125 2.125 0 002.117-2.109c0-1.168-.933-2.11-2.105-2.113z"/><path d="M8.242 6.926a.969.969 0 01-.957.957.978.978 0 01-.965-.957.957.957 0 01.97-.961.966.966 0 01.952.96zm3.657 7.105a.953.953 0 01-.961-.949.971.971 0 01.968-.969.972.972 0 01.953.965.961.961 0 01-.96.953z"/></g><defs><clipPath id="clip0_1_1880"><path fill="#fff" d="M0 0h19.176v20H0z"/></clipPath></defs></svg>