<svg width="20" height="13" fill="none" xmlns="http://www.w3.org/2000/svg"><g clip-path="url(#clip0_1_1860)" fill="#1FA956"><path d="M6.943 5.774V4.93c0-.247.114-.388.31-.396.204-.008.325.138.33.396.003.275 0 .546 0 .832h.501c0-.27-.003-.537 0-.804a.75.75 0 01.032-.232c.055-.145.176-.207.33-.188.176.02.266.137.278.306.012.228.004.459.004.687v.223c.835-.07 1.588-.31 2.255-.765.369-.25.694-.569 1.028-.87a.347.347 0 00.094-.24c.008-.992.008-1.988.004-2.98 0-.519-.338-.864-.851-.875-.298-.008-.6 0-.918 0-.004.086-.012.156-.012.227v1.687c-.004.721-.44 1.157-1.165 1.157H4.182c-.738 0-1.173-.436-1.173-1.17V-.003C2.554.024 2.11 0 1.69.082 1.133.196.698.73.71 1.282.733 2.357.498 3.397.368 4.452.09 6.727-.075 9.002.031 11.296c.012.232.121.404.341.479.655.223 1.31.44 1.97.651a.487.487 0 00.556-.184.489.489 0 00.004-.604c-.475-.655-.384-.534-.22-1.318.263-1.224.538-2.448.804-3.672.134-.6.467-.874 1.09-.874h2.366z"/><path d="M9.888.04H3.456c-.004.05-.016.097-.016.148 0 .597-.004 1.189 0 1.785.004.44.255.694.694.694h5.08c.408 0 .686-.247.694-.64.012-.638.004-1.282 0-1.921 0-.02-.012-.035-.02-.067zm4.021 2.392c0 .341-.004.679 0 1.02.004.27.11.384.377.388.51.004 1.02.004 1.53-.004.07 0 .152-.031.211-.074.647-.483.647-.487.647-1.295 0-.223.012-.447-.008-.667a.493.493 0 00-.137-.282 4.234 4.234 0 00-.506-.404.437.437 0 00-.235-.07c-.498-.008-.993-.004-1.49-.004-.287 0-.393.105-.393.388.004.337.004.67.004 1.004zm-1.353 1.577c.188 0 .373.015.55-.004.223-.028.372-.216.376-.502.012-.71.016-1.424 0-2.138-.008-.353-.204-.502-.561-.506h-.36c-.005 1.055-.005 2.098-.005 3.15zm4.554-1.93v.588h.43c.593 0 1.19.012 1.781-.008.189-.008.38-.074.557-.153.165-.074.161-.196-.003-.286-.118-.063-.256-.133-.385-.133-.788-.012-1.577-.008-2.38-.008zM5.08 6.205c-.235 0-.467-.016-.698.004a.475.475 0 00-.435.365c-.067.25-.118.502-.177.757.686.13 1.185-.145 1.31-1.126z"/></g><defs><clipPath id="clip0_1_1860"><path fill="#fff" transform="matrix(-1 0 0 1 20 0)" d="M0 0h20v12.453H0z"/></clipPath></defs></svg>