<svg width="16" height="12" fill="none" xmlns="http://www.w3.org/2000/svg"><g clip-path="url(#clip0_111_72944)" fill="#1F2023"><path d="M.822.1c.228-.033.456-.093.687-.093C5.044 0 8.581.003 12.12.003c.806 0 1.615-.006 2.422.004.212.003.428.063.64.096.003.02.003.037.007.057a3.66 3.66 0 01-.104.117c-2.01 2.132-4.015 4.262-6.025 6.391-.43.46-.943.633-1.525.403a1.586 1.586 0 01-.556-.383A1606.453 1606.453 0 01.891.24C.869.217.85.19.828.167.825.147.825.123.822.1z"/><path d="M.875 11.88l4.772-5.189c.231.247.44.47.647.694.322.346.697.6 1.147.71.865.21 1.615-.03 2.25-.687.215-.223.425-.457.656-.703 1.597 1.74 3.187 3.469 4.778 5.198-.16.027-.375.087-.59.09-1.141.01-2.282.004-3.422.004H1.506c-.24.003-.465-.03-.631-.117zM.178.86L4.9 5.995.156 11.154a1.566 1.566 0 01-.156-.72V6.205c0-1.543-.003-3.086.003-4.629 0-.233.06-.466.09-.7C.126.873.15.866.179.86zm15.719.016c.034.2.1.4.1.6.006 3.02.006 6.039 0 9.058 0 .196-.066.393-.103.59l-.06.016L11.1 5.992 15.822.856c.025.01.05.014.075.02z"/></g><defs><clipPath id="clip0_111_72944"><path fill="#fff" d="M0 0h16v12H0z"/></clipPath></defs></svg>