<svg width="13" height="13" fill="none" xmlns="http://www.w3.org/2000/svg"><g clip-path="url(#clip0_1_1562)" fill="#E23030"><path d="M12.782 5.812L6.949.497a.664.664 0 00-.898 0L.218 5.812a.662.662 0 00-.172.733c.1.259.344.426.621.426H1.6v5.325c0 .211.171.382.382.382h3.197a.382.382 0 00.383-.382V9.063H7.44v3.233c0 .211.17.382.382.382h3.197a.382.382 0 00.382-.382V6.97h.932a.662.662 0 00.621-.426.663.663 0 00-.172-.733zM11.3 1.085H8.734l2.95 2.682v-2.3a.382.382 0 00-.382-.382z"/></g><defs><clipPath id="clip0_1_1562"><path fill="#fff" d="M0 0h13v13H0z"/></clipPath></defs></svg>