<svg width="140" height="140" fill="none" xmlns="http://www.w3.org/2000/svg"><circle opacity=".2" cx="70" cy="70" r="70" fill="#fff"/><g clip-path="url(#clip0_107_56891)"><path d="M52.008 69.989c0-5.91 0-11.828-.008-17.737 0-.641.133-1.212.602-1.673.664-.649 1.579-.766 2.447-.282 2.259 1.267 4.518 2.533 6.777 3.807 8.286 4.66 16.58 9.326 24.866 13.985.727.407 1.267.915 1.314 1.798.046.907-.384 1.532-1.157 1.962-2.29 1.282-4.581 2.58-6.872 3.862C71.7 80.37 63.421 85.013 55.15 89.688c-1.336.758-2.767.07-3.072-1.15-.07-.273-.07-.57-.07-.852-.008-5.901 0-11.795 0-17.697z" fill="#F5F4F2"/></g><defs><clipPath id="clip0_107_56891"><path fill="#fff" transform="translate(52 50)" d="M0 0h36.005v40H0z"/></clipPath></defs></svg>