<svg width="14" height="14" fill="none" xmlns="http://www.w3.org/2000/svg"><g clip-path="url(#clip0_1_1266)" fill="#E23030"><path d="M5.1 7.724a.318.318 0 00-.318-.318H3.673a.318.318 0 00-.317.318v1.109c0 .175.142.317.317.317h1.11a.318.318 0 00.317-.317V7.724zm2.772 0a.318.318 0 00-.317-.318h-1.11a.318.318 0 00-.317.318v1.109c0 .175.142.317.318.317h1.109a.318.318 0 00.317-.317V7.724zm2.772 0a.318.318 0 00-.318-.318H9.217a.318.318 0 00-.318.318v1.109c0 .175.143.317.318.317h1.11a.318.318 0 00.317-.317V7.724zM5.1 10.495a.318.318 0 00-.318-.317H3.673a.318.318 0 00-.317.317v1.109c0 .175.142.318.317.318h1.11a.318.318 0 00.317-.318v-1.109zm2.772 0a.318.318 0 00-.317-.317h-1.11a.318.318 0 00-.317.317v1.109c0 .175.142.318.318.318h1.109a.318.318 0 00.317-.318v-1.109zm2.772 0a.318.318 0 00-.318-.317H9.217a.318.318 0 00-.318.317v1.109c0 .175.143.318.318.318h1.11a.318.318 0 00.317-.318v-1.109z"/><path d="M12.626 1.559v1.693c0 .766-.621 1.383-1.386 1.383h-.875A1.39 1.39 0 018.97 3.252v-1.7H5.03v1.7a1.39 1.39 0 01-1.395 1.383H2.76a1.383 1.383 0 01-1.387-1.383V1.56A1.26 1.26 0 00.155 2.813v9.925C.155 13.43.717 14 1.41 14h11.18c.692 0 1.254-.57 1.254-1.262V2.813c0-.68-.55-1.234-1.218-1.254zm-.406 10.56c0 .3-.243.543-.543.543H2.298a.543.543 0 01-.542-.542V6.993c0-.3.242-.543.542-.543h9.38c.299 0 .542.243.542.543v5.127z"/><path d="M2.757 3.727h.865a.475.475 0 00.476-.475V.475A.475.475 0 003.622 0h-.865a.475.475 0 00-.475.475v2.777c0 .262.213.475.475.475zm7.597 0h.865a.475.475 0 00.475-.475V.475A.475.475 0 0011.22 0h-.865a.475.475 0 00-.475.475v2.777c0 .262.213.475.475.475z"/></g><defs><clipPath id="clip0_1_1266"><path fill="#fff" d="M0 0h14v14H0z"/></clipPath></defs></svg>