<svg width="18" height="11" fill="none" xmlns="http://www.w3.org/2000/svg"><g clip-path="url(#clip0_1_3695)" fill="#E0E0E0"><path d="M9.003 11c-1.775-.011-3.42-.508-4.944-1.42C2.512 8.657 1.25 7.41.169 5.958c-.222-.3-.226-.635-.008-.93C1.254 3.56 2.53 2.307 4.097 1.38 5.334.65 6.656.184 8.086.047c2.358-.231 4.495.41 6.448 1.74 1.287.876 2.362 1.983 3.293 3.24.222.3.225.635.007.93-1.093 1.471-2.375 2.733-3.95 3.659-1.237.728-2.562 1.196-3.988 1.326-.295.025-.594.04-.893.058zM5.222 5.374c-.063 2.173 1.606 3.943 3.669 3.99 2.101.046 3.84-1.658 3.886-3.756.05-2.173-1.61-3.943-3.672-3.986-2.112-.047-3.848 1.647-3.883 3.752z"/><path d="M9.006 3.402c1.107 0 2.028.93 2.031 2.051.004 1.179-.913 2.13-2.052 2.127-1.107 0-2.024-.941-2.024-2.08.003-1.15.924-2.094 2.045-2.098z"/></g><defs><clipPath id="clip0_1_3695"><path fill="#fff" d="M0 0h18v11H0z"/></clipPath></defs></svg>